<svg xmlns="http://www.w3.org/2000/svg" viewBox="0 0 36 36"><path fill="#3e701e" d="M12.45 21.33s-2.46 4.09-1.78 5.65c.4.95 1.12 2.07 2.39 2.27.42.07.62.9.5 1.5a9.22 9.22 0 0 1-.89 2.14c-.26.49-.77.48-1.4 1.04-.45.39-.6 1.07.15 1.08l3.54.03c.66 0 1.1-.4 1.24-1.07.2-.92.76-4.46.55-5.14-.15-.5-.67-.89-1-1.84-.24-.7.35-1.8.35-1.8ZM6.7 15.76s.83-.15 1.27-.06c.45.08 1.7 1.02 2.09 1.16.38.14 1.3-.08 1.3-.08s1.06 1.44 1 1.58c-.08.15-1.62.47-1.99.58-.36.11-1.75-2.08-2.14-2.33s-.98.36-1.38.35c-.39-.02-.28-.3 0-.38 0 0-.47.16-.49-.02-.01-.17.4-.28.4-.28s-.42.15-.48-.02c-.07-.18.06-.38.42-.5z"/><path fill="#5c913a" d="M26.72 30.3c-1.1-2.08-6.26-4.51-7.32-5.4-1.06-.9-3.01-6.7-4.63-7.76-1.17-.76-1.63-2.42-1.95-3.97-.12-.61-1.67-1.33-1.78-1.85-.3.5-3.17 2.04-1.63 2.46 1.39.37.37 4.27 1.87 6.72.9 1.5.99 3.9 3.1 6.04 2.03 2.07 6.38 1.32 8.35 4.05 3.53 4.88 9.64 4.87 12.13 1.47 0 0-2.54.77-4.14.73-1.68-.04-3-.59-4-2.48z"/><path fill="#77b155" d="M14.14 21.63s-1.48 3.33-.73 5.1a6.73 6.73 0 0 0 3.9 3.48c.37.12 1.09.11 1.26.65.18.55-.16 2.35-.4 2.8-.25.44-1.54.68-1.8 1.5-.1.3-.3.75.28.8.68.07 4.26.03 4.87.04.61 0 .77-.48.77-1.1 0-.4-.68-2.4-.39-3.81a6.66 6.66 0 0 1 1-2.34c1-1.49.05-1.66-1.34-1.66-2.18 0-4.34-.6-4.34-.6zm-7.9-3.15s.78-.42 1.26-.49c.48-.06 2.06.46 2.5.47.42.01 1.68-.85 1.68-.85s1.15 1.43 1.13 1.6c-.03.16-1.47 1.01-1.8 1.24-.33.24-2.15-1.46-2.62-1.57-.48-.12-1.19.64-1.59.76-.4.11-.38-.2-.13-.38 0 0-.42.32-.5.15-.07-.17.3-.42.3-.42s-.36.29-.48.14c-.13-.16-.07-.4.25-.65z"/><path fill="#292e32" d="M10.64 8.1c.11.2-1.26 1.79-1.68 2.01-.24.14-.8.09-1.34.04.73-.3.53-.75.2-1.16.26.08.46.14.56.14.41-.04 1.94-1.62 2.26-1.03Z"/><path fill="#77b155" d="M9.03 13.8c-.52-.2-.68-.37-1.12-.71-.3-.23-.7-.45-1.24-.4-1.26.12-3.47.64-3.9.33-.41-.32-.64-1.2-.34-1.35a3.19 3.19 0 0 1 .16-.06v.03s-.04.99.34 1.04c.38.05 3.31-1.24 4-1.55.24-.1.4-.22.5-.32.32.24.99.39 1.53.24.98-.25 3.66-2.65 3.05-3.33-.61-.67-2.28-1.07-3.27-.5a3.39 3.39 0 0 0-1.35 1.26c.13.15.3.32.43.5-.32-.1-.72-.25-1.11-.4.17-.28.33-.61.33-.61s-1.17-.57-1.92-.48c-.74.1-3.91.53-4.22.77-.3.24.25 1.06.25 1.06l.1.2-.34.03c-.48-.06-.8-1.76-.6-2.33a6.11 6.11 0 0 1 2.73-2.77c1.52-.73 2.35-.8 2.76-1.25.11-.11.13-.47.65-.63.57-.18 1.55-.12 2.3-.8 2.21-2.02 2.55-.64 3.86-.2 1.65.54 2.54-.57 3.96 3.13 1.09 2.85-.67 4.35 1.29 6.13 0 0 1.66 1.55 2.94 2.2 8.73 4.47 5.01 13.72 9.48 17 4.08 3.01 4.79-1.7 3.98-3.14-.13-.24.12-.59.48-.24.9.84 1.17 2.7.92 3.86-.66 3.05-3.5 3.58-6.27 3.23-4.42-.56-6.57-7.67-10.76-5.52-2.2 1.14-3.55-3.74-5.1-6.07-1.37-2.06-3.05-7.1-3.33-8.03-.04-.15-.63-.1-1.17-.32Z"/><path fill="#f4900c" d="M7.04 7.97s-.16.33-.33.61c-.13.19-.25.34-.34.37-.07 0-.15-.28-.2-.55l-.07-.47-.06.43c-.08.28-.18.6-.32.62-.06 0-.26-.37-.4-.64a21.96 21.96 0 0 1-.14-.27s0 .14-.02.32c0 .29-.03.7-.08.7-.06 0-.27-.3-.42-.54l-.14-.25v.29c0 .3-.02.72-.08.74-.07 0-.3-.33-.47-.57-.07-.14-.14-.23-.14-.23l-.02.28c-.02.3-.06.73-.14.75-.08 0-.29-.33-.43-.58l-.17-.3.03.35c.03.3.06.7-.03.73-.09.04-.35-.32-.52-.58-.1-.14-.17-.27-.17-.27l.06.3c.04.3.09.72.01.76-.08.03-.32-.34-.49-.63l-.18-.3.02.34c.02.3.02.7-.03.74-.08.04-.3-.2-.52-.6l-.1-.2S.6 8.5.9 8.26c.3-.24 3.48-.68 4.22-.77.75-.1 1.92.48 1.92.48Zm.58 2.47s0 .16-.19.37a1.77 1.77 0 0 1-.5.32c-.69.31-3.62 1.6-4 1.55-.39-.05-.34-1.04-.34-1.04v-.03c-.06-.55 0-.97.11-.97.09-.01.35.64.4.82l.03.05v-.06c.02-.22.1-1.03.23-1.04.12-.01.3.65.36.89l.02.08.02-.1c.03-.25.11-.98.23-1 .12-.04.32.58.4.84l.03.1.01-.11c.04-.3.14-1.06.24-1.09.1-.04.37.71.44.9a.13.13 0 0 1 .01.04v-.05c.02-.21.05-1 .15-1.02.07 0 .3.42.44.7l.12.24-.01-.33c0-.3 0-.67.06-.68.04 0 .17.2.3.4l.25.45s0-.3.02-.56c0-.18.03-.34.06-.37a4.75 4.75 0 0 1 .48.75s.01-.18.05-.39c.02-.18.06-.36.1-.4.06-.06.22.21.33.44l.03.07.12.23z"/><path fill="#77b155" d="M2.44 9.2a3.5 3.5 0 0 1-.48.15l-.15.03a6.58 6.58 0 0 1-.6.14l-.1-.2s-.7-.76-.4-1c.3-.25 3.62-1.03 4.37-1.12.74-.1 2.17.8 2.17.8s-.37.3-.54.58l-.53-.18h-.01c-.05-.02-.1-.02-.13-.04-.24-.07-.43-.1-.53-.08l-.2.06c-.04.01-.09.02-.14.05a6.14 6.14 0 0 0-.5.16l-.15.04-.54.17-.17.05a12.4 12.4 0 0 1-.57.17.59.59 0 0 0-.14.05 39.11 39.11 0 0 0-.54.15.55.55 0 0 1-.12.03Zm6.63 2.1c-.54.14-1.31.25-1.62 0-.11.1-.15.18-.38.28-.7.31-3.84 1.3-4.23 1.24-.38-.05-.3-1.17-.3-1.17l.05-.04.52-.15h.03a22 22 0 0 1 .58-.16l.04-.01.62-.17a.09.09 0 0 0 .05-.01l.68-.2.15-.04c.18-.06.32-.17.45-.28l.1-.1c.12-.1.23-.2.36-.27a.76.76 0 0 1 .28-.11.76.76 0 0 1 .15-.02h.16l.28.01c.13 0 .28.03.43.04l.15.01c.54.05 1.1.1 1.34-.04.42-.22 1.79-1.81 1.68-2-.32-.6-1.85.98-2.26 1.01-.1.01-.3-.05-.56-.13-.14-.19-.44-.36-.42-.51 0 0 .25-.9 1.25-1.48 1-.57 2.97.03 3.58.7.6.68-2.17 3.34-3.16 3.6z"/><path fill="#3e701e" d="M7.8 5.05c-.68.23-2.7-.1-2.7-.1 2.27-.77 1-1.05 2.17-1.66.6-.32 1.45-.26 1.61.18.16.5.12 1.18-1.07 1.58Z"/><circle cx="7.65" cy="4.11" r=".48" fill="#292F33"/><g fill="#3E701E"><path d="M20.36 14.54a.5.5 0 1 1-.88-.46.5.5 0 0 1 .88.46zm1.25 3.15a.71.71 0 1 1-1.26-.66.71.71 0 0 1 1.26.66zm.54-2.21a.38.38 0 1 1-.68-.35.38.38 0 1 1 .68.35zm1.06 1.44a.36.36 0 1 1-.64-.33.36.36 0 0 1 .64.33zm3 7.53a.27.27 0 1 1-.48-.25.27.27 0 0 1 .48.25zM25 19.08a.66.66 0 0 1-1.18-.61.66.66 0 0 1 1.18.61z"/><circle cx="24.35" cy="23.68" r=".42"/><circle cx="22.84" cy="19" r=".42"/><circle cx="25.62" cy="22.39" r=".42"/><circle cx="24.04" cy="21.04" r=".63"/></g></svg>